<mxfile host="app.diagrams.net" modified="2023-06-06T01:25:16.392Z" agent="Mozilla/5.0 (Windows NT 10.0; Win64; x64) AppleWebKit/537.36 (KHTML, like Gecko) Chrome/114.0.0.0 Safari/537.36 Edg/114.0.1823.37" etag="LODuPAjj_9nWab4wK5P_" version="21.3.7" type="device">
  <diagram name="Page-1" id="ZWch6KYryVNrVb6p0aGZ">
    <mxGraphModel dx="2990" dy="2698" grid="1" gridSize="10" guides="1" tooltips="1" connect="1" arrows="1" fold="1" page="1" pageScale="1" pageWidth="850" pageHeight="1100" math="0" shadow="0">
      <root>
        <mxCell id="0" />
        <mxCell id="1" parent="0" />
        <mxCell id="dWsMsBKAjlN8BTmg53Zi-1" value="Riot API" style="ellipse;shape=cloud;whiteSpace=wrap;html=1;" parent="1" vertex="1">
          <mxGeometry x="-140" y="104" width="120" height="80" as="geometry" />
        </mxCell>
        <mxCell id="dWsMsBKAjlN8BTmg53Zi-34" style="edgeStyle=orthogonalEdgeStyle;rounded=0;orthogonalLoop=1;jettySize=auto;html=1;entryX=1;entryY=0.5;entryDx=0;entryDy=0;" parent="1" source="dWsMsBKAjlN8BTmg53Zi-2" target="dWsMsBKAjlN8BTmg53Zi-27" edge="1">
          <mxGeometry relative="1" as="geometry" />
        </mxCell>
        <mxCell id="dWsMsBKAjlN8BTmg53Zi-2" value="Game Interface" style="rounded=1;whiteSpace=wrap;html=1;" parent="1" vertex="1">
          <mxGeometry x="280" y="280" width="120" height="60" as="geometry" />
        </mxCell>
        <mxCell id="dWsMsBKAjlN8BTmg53Zi-4" value="SQL Database" style="shape=cylinder3;whiteSpace=wrap;html=1;boundedLbl=1;backgroundOutline=1;size=15;" parent="1" vertex="1">
          <mxGeometry x="520" y="-150" width="60" height="80" as="geometry" />
        </mxCell>
        <mxCell id="dWsMsBKAjlN8BTmg53Zi-64" style="edgeStyle=orthogonalEdgeStyle;rounded=0;orthogonalLoop=1;jettySize=auto;html=1;entryX=0.5;entryY=1;entryDx=0;entryDy=0;entryPerimeter=0;exitX=0.5;exitY=0;exitDx=0;exitDy=0;" parent="1" source="dWsMsBKAjlN8BTmg53Zi-5" target="dWsMsBKAjlN8BTmg53Zi-4" edge="1">
          <mxGeometry relative="1" as="geometry" />
        </mxCell>
        <mxCell id="dWsMsBKAjlN8BTmg53Zi-5" value="User Stats DB Interface" style="rounded=1;whiteSpace=wrap;html=1;" parent="1" vertex="1">
          <mxGeometry x="490" y="-30" width="120" height="60" as="geometry" />
        </mxCell>
        <mxCell id="dWsMsBKAjlN8BTmg53Zi-7" value="" style="shape=image;html=1;verticalAlign=top;verticalLabelPosition=bottom;labelBackgroundColor=#ffffff;imageAspect=0;aspect=fixed;image=https://cdn1.iconfinder.com/data/icons/unicons-line-vol-3/24/discord-128.png" parent="1" vertex="1">
          <mxGeometry x="1340" y="266" width="88" height="88" as="geometry" />
        </mxCell>
        <mxCell id="dWsMsBKAjlN8BTmg53Zi-8" value="Discord Interaction Interface" style="rounded=1;whiteSpace=wrap;html=1;" parent="1" vertex="1">
          <mxGeometry x="710" y="280" width="120" height="60" as="geometry" />
        </mxCell>
        <mxCell id="dWsMsBKAjlN8BTmg53Zi-10" style="edgeStyle=orthogonalEdgeStyle;rounded=0;orthogonalLoop=1;jettySize=auto;html=1;startArrow=classic;startFill=1;" parent="1" source="dWsMsBKAjlN8BTmg53Zi-9" target="dWsMsBKAjlN8BTmg53Zi-7" edge="1">
          <mxGeometry relative="1" as="geometry" />
        </mxCell>
        <mxCell id="GeZ2JBlscgipPaIo40qe-9" style="edgeStyle=orthogonalEdgeStyle;rounded=0;orthogonalLoop=1;jettySize=auto;html=1;entryX=1;entryY=0.5;entryDx=0;entryDy=0;exitX=0.5;exitY=0;exitDx=0;exitDy=0;" edge="1" parent="1" source="dWsMsBKAjlN8BTmg53Zi-9" target="GeZ2JBlscgipPaIo40qe-8">
          <mxGeometry relative="1" as="geometry" />
        </mxCell>
        <mxCell id="dWsMsBKAjlN8BTmg53Zi-9" value="Discord Lib" style="rounded=0;whiteSpace=wrap;html=1;" parent="1" vertex="1">
          <mxGeometry x="1130" y="280" width="120" height="60" as="geometry" />
        </mxCell>
        <mxCell id="dWsMsBKAjlN8BTmg53Zi-14" style="edgeStyle=orthogonalEdgeStyle;rounded=0;orthogonalLoop=1;jettySize=auto;html=1;startArrow=classic;startFill=1;" parent="1" source="dWsMsBKAjlN8BTmg53Zi-12" target="dWsMsBKAjlN8BTmg53Zi-8" edge="1">
          <mxGeometry relative="1" as="geometry" />
        </mxCell>
        <mxCell id="dWsMsBKAjlN8BTmg53Zi-17" style="edgeStyle=orthogonalEdgeStyle;rounded=0;orthogonalLoop=1;jettySize=auto;html=1;" parent="1" source="dWsMsBKAjlN8BTmg53Zi-12" target="dWsMsBKAjlN8BTmg53Zi-2" edge="1">
          <mxGeometry relative="1" as="geometry" />
        </mxCell>
        <mxCell id="dWsMsBKAjlN8BTmg53Zi-53" style="edgeStyle=orthogonalEdgeStyle;rounded=0;orthogonalLoop=1;jettySize=auto;html=1;" parent="1" source="dWsMsBKAjlN8BTmg53Zi-12" target="dWsMsBKAjlN8BTmg53Zi-49" edge="1">
          <mxGeometry relative="1" as="geometry" />
        </mxCell>
        <mxCell id="GeZ2JBlscgipPaIo40qe-14" style="edgeStyle=orthogonalEdgeStyle;rounded=0;orthogonalLoop=1;jettySize=auto;html=1;entryX=1;entryY=0.5;entryDx=0;entryDy=0;exitX=0;exitY=0;exitDx=0;exitDy=0;" edge="1" parent="1" source="dWsMsBKAjlN8BTmg53Zi-12" target="dWsMsBKAjlN8BTmg53Zi-65">
          <mxGeometry relative="1" as="geometry">
            <Array as="points">
              <mxPoint x="510" y="282" />
              <mxPoint x="510" y="190" />
            </Array>
          </mxGeometry>
        </mxCell>
        <mxCell id="dWsMsBKAjlN8BTmg53Zi-12" value="Controller" style="ellipse;whiteSpace=wrap;html=1;" parent="1" vertex="1">
          <mxGeometry x="490" y="270" width="120" height="80" as="geometry" />
        </mxCell>
        <mxCell id="dWsMsBKAjlN8BTmg53Zi-16" value="Timer Polling" style="text;html=1;align=center;verticalAlign=middle;resizable=0;points=[];autosize=1;strokeColor=none;fillColor=none;" parent="1" vertex="1">
          <mxGeometry x="400" y="310" width="100" height="30" as="geometry" />
        </mxCell>
        <mxCell id="dWsMsBKAjlN8BTmg53Zi-21" style="edgeStyle=orthogonalEdgeStyle;rounded=0;orthogonalLoop=1;jettySize=auto;html=1;entryX=0;entryY=0.5;entryDx=0;entryDy=0;entryPerimeter=0;exitX=0.5;exitY=0;exitDx=0;exitDy=0;" parent="1" source="dWsMsBKAjlN8BTmg53Zi-19" target="dWsMsBKAjlN8BTmg53Zi-4" edge="1">
          <mxGeometry relative="1" as="geometry" />
        </mxCell>
        <mxCell id="dWsMsBKAjlN8BTmg53Zi-19" value="Game Listener Registration DB Interface" style="rounded=1;whiteSpace=wrap;html=1;" parent="1" vertex="1">
          <mxGeometry x="340" y="-30" width="120" height="60" as="geometry" />
        </mxCell>
        <mxCell id="dWsMsBKAjlN8BTmg53Zi-22" value="" style="rounded=1;whiteSpace=wrap;html=1;" parent="1" vertex="1">
          <mxGeometry x="70" y="260" width="120" height="60" as="geometry" />
        </mxCell>
        <mxCell id="dWsMsBKAjlN8BTmg53Zi-23" value="" style="rounded=0;whiteSpace=wrap;html=1;" parent="1" vertex="1">
          <mxGeometry x="-140" y="260" width="120" height="60" as="geometry" />
        </mxCell>
        <mxCell id="dWsMsBKAjlN8BTmg53Zi-26" value="" style="rounded=1;whiteSpace=wrap;html=1;" parent="1" vertex="1">
          <mxGeometry x="80" y="270" width="120" height="60" as="geometry" />
        </mxCell>
        <mxCell id="dWsMsBKAjlN8BTmg53Zi-33" style="edgeStyle=orthogonalEdgeStyle;rounded=0;orthogonalLoop=1;jettySize=auto;html=1;entryX=1;entryY=0.5;entryDx=0;entryDy=0;" parent="1" source="dWsMsBKAjlN8BTmg53Zi-27" target="dWsMsBKAjlN8BTmg53Zi-32" edge="1">
          <mxGeometry relative="1" as="geometry" />
        </mxCell>
        <mxCell id="dWsMsBKAjlN8BTmg53Zi-27" value="Riot Game Interface Implementation" style="rounded=1;whiteSpace=wrap;html=1;" parent="1" vertex="1">
          <mxGeometry x="90" y="280" width="120" height="60" as="geometry" />
        </mxCell>
        <mxCell id="dWsMsBKAjlN8BTmg53Zi-28" value="Riot API" style="ellipse;shape=cloud;whiteSpace=wrap;html=1;" parent="1" vertex="1">
          <mxGeometry x="-130" y="114" width="120" height="80" as="geometry" />
        </mxCell>
        <mxCell id="dWsMsBKAjlN8BTmg53Zi-55" style="edgeStyle=orthogonalEdgeStyle;rounded=0;orthogonalLoop=1;jettySize=auto;html=1;startArrow=classic;startFill=1;" parent="1" source="dWsMsBKAjlN8BTmg53Zi-30" target="dWsMsBKAjlN8BTmg53Zi-32" edge="1">
          <mxGeometry relative="1" as="geometry" />
        </mxCell>
        <mxCell id="dWsMsBKAjlN8BTmg53Zi-30" value="Riot API" style="ellipse;shape=cloud;whiteSpace=wrap;html=1;" parent="1" vertex="1">
          <mxGeometry x="-120" y="124" width="120" height="80" as="geometry" />
        </mxCell>
        <mxCell id="dWsMsBKAjlN8BTmg53Zi-31" value="" style="rounded=0;whiteSpace=wrap;html=1;" parent="1" vertex="1">
          <mxGeometry x="-130" y="270" width="120" height="60" as="geometry" />
        </mxCell>
        <mxCell id="dWsMsBKAjlN8BTmg53Zi-32" value="Riot REST API Lib" style="rounded=0;whiteSpace=wrap;html=1;" parent="1" vertex="1">
          <mxGeometry x="-120" y="280" width="120" height="60" as="geometry" />
        </mxCell>
        <mxCell id="dWsMsBKAjlN8BTmg53Zi-37" value="&lt;font style=&quot;font-size: 14px;&quot;&gt;In order to add a game you must implement this interface&lt;/font&gt;" style="text;html=1;align=center;verticalAlign=middle;resizable=0;points=[];autosize=1;strokeColor=none;fillColor=none;" parent="1" vertex="1">
          <mxGeometry x="-140" y="480" width="380" height="30" as="geometry" />
        </mxCell>
        <mxCell id="dWsMsBKAjlN8BTmg53Zi-39" value="" style="curved=1;endArrow=classic;html=1;rounded=0;exitX=0.481;exitY=-0.083;exitDx=0;exitDy=0;exitPerimeter=0;entryX=0.5;entryY=1;entryDx=0;entryDy=0;" parent="1" source="dWsMsBKAjlN8BTmg53Zi-37" target="dWsMsBKAjlN8BTmg53Zi-2" edge="1">
          <mxGeometry width="50" height="50" relative="1" as="geometry">
            <mxPoint x="420" y="370" as="sourcePoint" />
            <mxPoint x="470" y="320" as="targetPoint" />
            <Array as="points">
              <mxPoint x="170" y="370" />
              <mxPoint x="250" y="440" />
            </Array>
          </mxGeometry>
        </mxCell>
        <mxCell id="dWsMsBKAjlN8BTmg53Zi-150" style="edgeStyle=orthogonalEdgeStyle;rounded=0;orthogonalLoop=1;jettySize=auto;html=1;" parent="1" source="dWsMsBKAjlN8BTmg53Zi-49" target="dWsMsBKAjlN8BTmg53Zi-5" edge="1">
          <mxGeometry relative="1" as="geometry" />
        </mxCell>
        <mxCell id="dWsMsBKAjlN8BTmg53Zi-151" style="edgeStyle=orthogonalEdgeStyle;rounded=0;orthogonalLoop=1;jettySize=auto;html=1;entryX=0.5;entryY=1;entryDx=0;entryDy=0;" parent="1" source="dWsMsBKAjlN8BTmg53Zi-49" target="dWsMsBKAjlN8BTmg53Zi-19" edge="1">
          <mxGeometry relative="1" as="geometry" />
        </mxCell>
        <mxCell id="dWsMsBKAjlN8BTmg53Zi-153" style="edgeStyle=orthogonalEdgeStyle;rounded=0;orthogonalLoop=1;jettySize=auto;html=1;" parent="1" source="dWsMsBKAjlN8BTmg53Zi-49" target="dWsMsBKAjlN8BTmg53Zi-152" edge="1">
          <mxGeometry relative="1" as="geometry" />
        </mxCell>
        <mxCell id="dWsMsBKAjlN8BTmg53Zi-49" value="Database Interface" style="rounded=1;whiteSpace=wrap;html=1;" parent="1" vertex="1">
          <mxGeometry x="490" y="89" width="120" height="60" as="geometry" />
        </mxCell>
        <mxCell id="dWsMsBKAjlN8BTmg53Zi-56" value="Callbacks" style="text;html=1;align=center;verticalAlign=middle;resizable=0;points=[];autosize=1;strokeColor=none;fillColor=none;" parent="1" vertex="1">
          <mxGeometry x="620" y="310" width="80" height="30" as="geometry" />
        </mxCell>
        <mxCell id="dWsMsBKAjlN8BTmg53Zi-58" style="edgeStyle=orthogonalEdgeStyle;rounded=0;orthogonalLoop=1;jettySize=auto;html=1;entryX=0.5;entryY=1;entryDx=0;entryDy=0;" parent="1" source="dWsMsBKAjlN8BTmg53Zi-57" target="dWsMsBKAjlN8BTmg53Zi-12" edge="1">
          <mxGeometry relative="1" as="geometry" />
        </mxCell>
        <mxCell id="dWsMsBKAjlN8BTmg53Zi-60" style="edgeStyle=orthogonalEdgeStyle;rounded=0;orthogonalLoop=1;jettySize=auto;html=1;" parent="1" source="dWsMsBKAjlN8BTmg53Zi-57" target="dWsMsBKAjlN8BTmg53Zi-59" edge="1">
          <mxGeometry relative="1" as="geometry" />
        </mxCell>
        <mxCell id="dWsMsBKAjlN8BTmg53Zi-57" value="Main" style="ellipse;whiteSpace=wrap;html=1;" parent="1" vertex="1">
          <mxGeometry x="490" y="430" width="120" height="80" as="geometry" />
        </mxCell>
        <mxCell id="dWsMsBKAjlN8BTmg53Zi-59" value="Environment Variables" style="shape=note;whiteSpace=wrap;html=1;backgroundOutline=1;darkOpacity=0.05;" parent="1" vertex="1">
          <mxGeometry x="290" y="420" width="80" height="100" as="geometry" />
        </mxCell>
        <mxCell id="dWsMsBKAjlN8BTmg53Zi-61" value="Initializes" style="text;html=1;align=center;verticalAlign=middle;resizable=0;points=[];autosize=1;strokeColor=none;fillColor=none;" parent="1" vertex="1">
          <mxGeometry x="550" y="380" width="70" height="30" as="geometry" />
        </mxCell>
        <mxCell id="dWsMsBKAjlN8BTmg53Zi-65" value="Active Game Manager" style="rounded=1;whiteSpace=wrap;html=1;" parent="1" vertex="1">
          <mxGeometry x="260" y="160" width="120" height="60" as="geometry" />
        </mxCell>
        <mxCell id="dWsMsBKAjlN8BTmg53Zi-154" style="edgeStyle=orthogonalEdgeStyle;rounded=0;orthogonalLoop=1;jettySize=auto;html=1;entryX=1;entryY=0.5;entryDx=0;entryDy=0;entryPerimeter=0;exitX=0.5;exitY=0;exitDx=0;exitDy=0;" parent="1" source="dWsMsBKAjlN8BTmg53Zi-152" target="dWsMsBKAjlN8BTmg53Zi-4" edge="1">
          <mxGeometry relative="1" as="geometry" />
        </mxCell>
        <mxCell id="dWsMsBKAjlN8BTmg53Zi-152" value="Registered Server DB Interface" style="rounded=1;whiteSpace=wrap;html=1;" parent="1" vertex="1">
          <mxGeometry x="650" y="-30" width="120" height="60" as="geometry" />
        </mxCell>
        <mxCell id="dWsMsBKAjlN8BTmg53Zi-156" value="&lt;font style=&quot;font-size: 14px;&quot;&gt;Manages active game object that reside in volatile memory&lt;/font&gt;" style="text;html=1;align=center;verticalAlign=middle;resizable=0;points=[];autosize=1;strokeColor=none;fillColor=none;" parent="1" vertex="1">
          <mxGeometry x="-45" y="40" width="390" height="30" as="geometry" />
        </mxCell>
        <mxCell id="dWsMsBKAjlN8BTmg53Zi-158" value="" style="curved=1;endArrow=classic;html=1;rounded=0;entryX=0;entryY=0.5;entryDx=0;entryDy=0;" parent="1" source="dWsMsBKAjlN8BTmg53Zi-156" target="dWsMsBKAjlN8BTmg53Zi-65" edge="1">
          <mxGeometry width="50" height="50" relative="1" as="geometry">
            <mxPoint x="920" y="180" as="sourcePoint" />
            <mxPoint x="970" y="130" as="targetPoint" />
            <Array as="points">
              <mxPoint x="190" y="120" />
              <mxPoint x="30" y="170" />
            </Array>
          </mxGeometry>
        </mxCell>
        <mxCell id="GeZ2JBlscgipPaIo40qe-1" value="" style="rounded=1;whiteSpace=wrap;html=1;" vertex="1" parent="1">
          <mxGeometry x="910" y="260" width="120" height="60" as="geometry" />
        </mxCell>
        <mxCell id="GeZ2JBlscgipPaIo40qe-2" value="" style="rounded=1;whiteSpace=wrap;html=1;" vertex="1" parent="1">
          <mxGeometry x="920" y="270" width="120" height="60" as="geometry" />
        </mxCell>
        <mxCell id="GeZ2JBlscgipPaIo40qe-4" style="edgeStyle=orthogonalEdgeStyle;rounded=0;orthogonalLoop=1;jettySize=auto;html=1;entryX=1;entryY=0.5;entryDx=0;entryDy=0;startArrow=classic;startFill=1;" edge="1" parent="1" source="GeZ2JBlscgipPaIo40qe-3" target="dWsMsBKAjlN8BTmg53Zi-8">
          <mxGeometry relative="1" as="geometry" />
        </mxCell>
        <mxCell id="GeZ2JBlscgipPaIo40qe-5" style="edgeStyle=orthogonalEdgeStyle;rounded=0;orthogonalLoop=1;jettySize=auto;html=1;entryX=0;entryY=0.5;entryDx=0;entryDy=0;startArrow=classic;startFill=1;" edge="1" parent="1" source="GeZ2JBlscgipPaIo40qe-3" target="dWsMsBKAjlN8BTmg53Zi-9">
          <mxGeometry relative="1" as="geometry" />
        </mxCell>
        <mxCell id="GeZ2JBlscgipPaIo40qe-3" value="League Discord Interaction&amp;nbsp;Interface Implementation" style="rounded=1;whiteSpace=wrap;html=1;" vertex="1" parent="1">
          <mxGeometry x="930" y="280" width="120" height="60" as="geometry" />
        </mxCell>
        <mxCell id="GeZ2JBlscgipPaIo40qe-6" value="&lt;font style=&quot;font-size: 14px;&quot;&gt;In order to add a game you must implement this interface&lt;/font&gt;" style="text;html=1;align=center;verticalAlign=middle;resizable=0;points=[];autosize=1;strokeColor=none;fillColor=none;" vertex="1" parent="1">
          <mxGeometry x="710" y="450" width="380" height="30" as="geometry" />
        </mxCell>
        <mxCell id="GeZ2JBlscgipPaIo40qe-7" value="" style="curved=1;endArrow=none;html=1;rounded=0;exitX=0.473;exitY=1.066;exitDx=0;exitDy=0;exitPerimeter=0;entryX=0.516;entryY=-0.022;entryDx=0;entryDy=0;entryPerimeter=0;endFill=0;startArrow=classic;startFill=1;" edge="1" parent="1" target="GeZ2JBlscgipPaIo40qe-6">
          <mxGeometry width="50" height="50" relative="1" as="geometry">
            <mxPoint x="770" y="340" as="sourcePoint" />
            <mxPoint x="910" y="439" as="targetPoint" />
            <Array as="points">
              <mxPoint x="810" y="389" />
              <mxPoint x="930" y="369" />
            </Array>
          </mxGeometry>
        </mxCell>
        <mxCell id="GeZ2JBlscgipPaIo40qe-15" style="edgeStyle=orthogonalEdgeStyle;rounded=0;orthogonalLoop=1;jettySize=auto;html=1;entryX=1;entryY=0;entryDx=0;entryDy=0;" edge="1" parent="1" source="GeZ2JBlscgipPaIo40qe-8" target="dWsMsBKAjlN8BTmg53Zi-12">
          <mxGeometry relative="1" as="geometry" />
        </mxCell>
        <mxCell id="GeZ2JBlscgipPaIo40qe-8" value="Command Processor" style="rounded=1;whiteSpace=wrap;html=1;" vertex="1" parent="1">
          <mxGeometry x="870" y="160" width="120" height="60" as="geometry" />
        </mxCell>
        <mxCell id="GeZ2JBlscgipPaIo40qe-12" value="Callbacks" style="text;html=1;align=center;verticalAlign=middle;resizable=0;points=[];autosize=1;strokeColor=none;fillColor=none;" vertex="1" parent="1">
          <mxGeometry x="690" y="190" width="80" height="30" as="geometry" />
        </mxCell>
      </root>
    </mxGraphModel>
  </diagram>
</mxfile>
